# xmcd
#
# Track frame offsets: 
#        150
#        17625
#        34839
#        56326
#        76538
#        97500
#        117601
#        142202
#        163053
#        190652
#        207526
#        225676
#        249339
#        271090
#        291866
#        309566
#
# Disc length: 4400 seconds
#
# Revision: 0
# Processed by: cddbd v1.4PL0 Copyright (c) Steve Scherf et al.
# Submitted via: ExactAudioCopy v0.90b4
#
DISCID=d4112e10
DTITLE=Various Artist - My Favourites Blues vol.1
DYEAR=2001
DGENRE=Blues
TTITLE0=Joe Bonamassa - Cradle Rock
TTITLE1=Cry Of Love - Pretty As You Please
TTITLE2=Wild' T' And The Spirit - I'm A Rivere
TTITLE3=Harpface And The Heat - Politician
TTITLE4=Oriental Spas - Feelin Airight
TTITLE5=Colin James - Mystery To Me
TTITLE6=Tim Brooks - Dull You Under
TTITLE7=A.L.L. - Save Me
TTITLE8=White Line - Mental Crowd
TTITLE9=Gravy - Junkyard Man
TTITLE10=The Dusters - Roadhouse Blues
TTITLE11=Indigenous - Holdin Out
TTITLE12=Albatross - Man Of The World [Usa]
TTITLE13=Bugs Henderson Group - Qucksand
TTITLE14=Van Wilks - Texas' 51
TTITLE15=Kevin Russel - Train Cenductor
EXTD=
EXTT0=
EXTT1=
EXTT2=
EXTT3=
EXTT4=
EXTT5=
EXTT6=
EXTT7=
EXTT8=
EXTT9=
EXTT10=
EXTT11=
EXTT12=
EXTT13=
EXTT14=
EXTT15=
PLAYORDER=
